<svg xmlns="http://www.w3.org/2000/svg" width="25" height="24.993"><path data-name="Контур 45" d="M24.973 10.58l-1.05 9.218a5.856 5.856 0 01-5.821 5.195h-11.2a5.854 5.854 0 01-5.82-5.195L.031 10.58A4.2 4.2 0 011.07 7.309a4.2 4.2 0 013.132-1.4.976.976 0 01.976.976.976.976 0 01-.976.977 2.216 2.216 0 00-1.675.75 2.219 2.219 0 00-.556 1.749l1.051 9.219a3.9 3.9 0 003.88 3.463h11.2a3.9 3.9 0 003.88-3.463l1.051-9.219a2.219 2.219 0 00-.556-1.749 2.218 2.218 0 00-1.675-.75.976.976 0 01-.976-.977.976.976 0 01.976-.976 4.2 4.2 0 013.132 1.4 4.2 4.2 0 011.039 3.271zM7.964 7.894a.976.976 0 00.976-.976v-1.4a3.568 3.568 0 013.564-3.564 3.567 3.567 0 013.563 3.564v.39h-4.2a.976.976 0 00-.976.976.976.976 0 00.976.977h5.175a.976.976 0 00.976-.977V5.518A5.522 5.522 0 0012.502.002a5.522 5.522 0 00-5.516 5.516v1.4a.976.976 0 00.978.975z" fill="#040506"/></svg>