<svg xmlns="http://www.w3.org/2000/svg" width="17.455" height="15"><g data-name="Сгруппировать 438" fill="#af0018"><path data-name="Контур 352" d="M9.136 13.637a.682.682 0 100-1.364h-.817a.682.682 0 100 1.364z"/><path data-name="Контур 353" d="M12.682 5.455a.682.682 0 00-.682.682V7.5a2.048 2.048 0 002.046 2.046.682.682 0 100-1.364.683.683 0 01-.682-.682V6.137a.681.681 0 00-.682-.682z"/><path data-name="Контур 354" d="M14.047 2.728h-3.273v-.682A2.048 2.048 0 008.729 0H2.047A2.049 2.049 0 00.001 2.046v9.542a2.048 2.048 0 002.046 2.046h.8a2.045 2.045 0 100-1.364h-.8a.683.683 0 01-.682-.682V2.043a.683.683 0 01.682-.682h6.682a.682.682 0 01.681.682v6.818a.682.682 0 001.364 0V4.088h3.273a2.048 2.048 0 012.045 2.046v5.454a.683.683 0 01-.682.682h-.8a2.045 2.045 0 100 1.364h.8a2.049 2.049 0 002.046-2.046V6.134a3.413 3.413 0 00-3.409-3.406zm-9.273 9.545a.682.682 0 11-.682.682.683.683 0 01.681-.682zm7.909 1.364a.682.682 0 11.682-.682.683.683 0 01-.683.682z"/><path data-name="Контур 355" d="M8.047 8.864a.682.682 0 00-.682-.682H3.41a.682.682 0 000 1.364h3.955a.682.682 0 00.682-.682z"/></g></svg>