<svg xmlns="http://www.w3.org/2000/svg" width="14.657" height="14.654"><path data-name="Контур 103" d="M11.223 14.654H3.437a3.439 3.439 0 01-3.436-3.435V6.402A3.458 3.458 0 011.353 3.67L5.247.701a3.444 3.444 0 014.166 0l3.893 2.969a3.455 3.455 0 011.352 2.732v4.817a3.439 3.439 0 01-3.435 3.435zM7.33 1.144a2.287 2.287 0 00-1.389.468L2.048 4.581a2.3 2.3 0 00-.9 1.821v4.817a2.293 2.293 0 002.29 2.29h7.785a2.293 2.293 0 002.29-2.29V6.402a2.3 2.3 0 00-.9-1.821L8.72 1.612a2.287 2.287 0 00-1.389-.468zm2.083 8.8l2.758-2.1a.571.571 0 00.108-.8.571.571 0 00-.8-.108l-2.758 2.1a2.3 2.3 0 01-2.778 0l-2.73-2.082a.572.572 0 00-.8.108.571.571 0 00.108.8l2.73 2.082a3.428 3.428 0 002.083.7 3.428 3.428 0 002.083-.7z" fill="#fff"/></svg>