<svg xmlns="http://www.w3.org/2000/svg" width="26.054" height="23.229"><path data-name="Контур 48" d="M23.965 2.301a7.1 7.1 0 00-5.284-2.3 6.66 6.66 0 00-4.159 1.435 8.357 8.357 0 00-1.495 1.51 8.357 8.357 0 00-1.495-1.51A6.659 6.659 0 007.374.001a7.106 7.106 0 00-5.285 2.3A8.224 8.224 0 000 7.917a9.741 9.741 0 002.591 6.38 54.2 54.2 0 006.392 6c.88.749 1.877 1.6 2.911 2.5a1.721 1.721 0 001.133.426 1.721 1.721 0 001.133-.426c1-.878 1.973-1.7 2.833-2.438l.083-.071a54.362 54.362 0 006.388-6 9.739 9.739 0 002.59-6.38 8.224 8.224 0 00-2.089-5.607zM10.127 19.018l.1-.2a53.1 53.1 0 01-6.146-5.754 7.821 7.821 0 01-2.146-5.146 6.3 6.3 0 011.578-4.306 5.2 5.2 0 013.863-1.677 4.764 4.764 0 012.974 1.03 7.025 7.025 0 011.679 1.945 1.157 1.157 0 001 .567 1.155 1.155 0 001-.567 7.05 7.05 0 011.679-1.945 4.768 4.768 0 012.975-1.03 5.191 5.191 0 013.862 1.677 6.3 6.3 0 011.572 4.305 7.826 7.826 0 01-2.145 5.146 53.153 53.153 0 01-6.154 5.76c-.846.72-1.8 1.533-2.8 2.4-.98-.856-1.921-1.658-2.758-2.371l-.14.165z" fill="#040506"/></svg>