<svg xmlns="http://www.w3.org/2000/svg" width="19.178" height="19.182" viewBox="0 0 19.178 19.182">
  <g id="Сгруппировать_3" data-name="Сгруппировать 3" transform="translate(-969.885 -29.241)">
    <path id="Контур_1" data-name="Контур 1" d="M989.015,34.88a7.013,7.013,0,0,0-.446-2.327,4.923,4.923,0,0,0-2.807-2.807,7.038,7.038,0,0,0-2.327-.445c-1.027-.049-1.353-.06-3.957-.06s-2.931.011-3.954.056a7.012,7.012,0,0,0-2.327.446,4.911,4.911,0,0,0-2.806,2.806,7.008,7.008,0,0,0-.446,2.327c-.049,1.027-.06,1.353-.06,3.958s.011,2.93.056,3.953a7.013,7.013,0,0,0,.446,2.327,4.915,4.915,0,0,0,2.807,2.807,7.024,7.024,0,0,0,2.327.446c1.023.045,1.349.056,3.953.056s2.93-.011,3.953-.056a7.008,7.008,0,0,0,2.327-.446,4.905,4.905,0,0,0,2.807-2.807,7.035,7.035,0,0,0,.446-2.327c.045-1.023.056-1.349.056-3.953S989.06,35.9,989.015,34.88Zm-1.728,7.832a5.225,5.225,0,0,1-.33,1.78,3.177,3.177,0,0,1-1.821,1.821,5.274,5.274,0,0,1-1.78.33c-1.012.045-1.315.056-3.874.056s-2.867-.011-3.875-.056a5.25,5.25,0,0,1-1.78-.33,2.936,2.936,0,0,1-1.1-.716,2.99,2.99,0,0,1-.716-1.1,5.282,5.282,0,0,1-.329-1.78c-.045-1.012-.056-1.315-.056-3.875s.011-2.867.056-3.875a5.257,5.257,0,0,1,.329-1.779,2.922,2.922,0,0,1,.72-1.1,2.98,2.98,0,0,1,1.1-.716,5.3,5.3,0,0,1,1.78-.33c1.011-.045,1.315-.056,3.874-.056s2.867.011,3.875.056a5.277,5.277,0,0,1,1.78.33,3.158,3.158,0,0,1,1.817,1.818,5.241,5.241,0,0,1,.33,1.779c.045,1.012.056,1.316.056,3.875S987.332,41.7,987.287,42.712Z" fill="#fff"/>
    <path id="Контур_2" data-name="Контур 2" d="M979.478,33.906a4.928,4.928,0,1,0,4.927,4.928A4.929,4.929,0,0,0,979.478,33.906Zm0,8.124a3.2,3.2,0,1,1,3.2-3.2A3.2,3.2,0,0,1,979.478,42.03Z" fill="#fff"/>
    <path id="Контур_3" data-name="Контур 3" d="M985.751,33.711a1.15,1.15,0,1,1-1.151-1.15A1.151,1.151,0,0,1,985.751,33.711Z" fill="#fff"/>
  </g>
</svg>
