<svg xmlns="http://www.w3.org/2000/svg" xmlns:xlink="http://www.w3.org/1999/xlink" width="160.685" height="132.551"><defs><linearGradient id="c" x1="-34.503" y1="-68.464" x2="-34.503" y2="-69.066" gradientUnits="objectBoundingBox"><stop offset="0" stop-color="#771a37"/><stop offset="1" stop-color="#cc4023"/></linearGradient><linearGradient id="a" x1="-39.325" y1="-75.548" x2="-37.645" y2="-75.548" gradientUnits="objectBoundingBox"><stop offset="0" stop-color="#af68a5"/><stop offset="1" stop-color="#823365"/></linearGradient><linearGradient id="d" x1="-48.546" y1="-79.755" x2="-46.59" y2="-79.755" xlink:href="#a"/><linearGradient id="e" x1="-34.41" y1="-174.648" x2="-33.768" y2="-174.648" xlink:href="#a"/><linearGradient id="f" x1="-69.568" y1="-120.697" x2="-67.712" y2="-120.697" xlink:href="#a"/><linearGradient id="g" x1="-166.083" y1="-290.505" x2="-164.229" y2="-290.505" xlink:href="#a"/><linearGradient id="h" x1="-188.899" y1="-343.622" x2="-187.081" y2="-343.622" xlink:href="#a"/><linearGradient id="i" x1="-77.498" y1="-246.705" x2="-76.46" y2="-246.705" xlink:href="#a"/><linearGradient id="j" x1="-44.779" y1="-279.545" x2="-44.258" y2="-279.545" xlink:href="#a"/><linearGradient id="k" x1=".617" y1=".584" x2="-.01" y2=".133" gradientUnits="objectBoundingBox"><stop offset=".265" stop-color="#6b1028"/><stop offset=".446" stop-color="#711428"/><stop offset=".62" stop-color="#7d1e28"/><stop offset=".858" stop-color="#6b1028"/></linearGradient><linearGradient id="l" x1=".838" y1="-.209" x2=".393" y2=".723" gradientUnits="objectBoundingBox"><stop offset=".011" stop-color="#ffbd5b"/><stop offset=".099" stop-color="#fcb658"/><stop offset=".221" stop-color="#f5a450"/><stop offset=".362" stop-color="#e98743"/><stop offset=".517" stop-color="#d85e30"/><stop offset=".62" stop-color="#cc4023"/><stop offset=".969" stop-color="#ef7232"/></linearGradient><clipPath id="b"><path data-name="Контур 96" d="M-1701.113 3644.353c-1.625-1.2-3.062-2.2-4.33-3.077-4.445-3.084-6.46-4.485-6.222-7.335a12.271 12.271 0 008.777 3.9h.061a14.635 14.635 0 005.078-.914 13.991 13.991 0 008.1-7.532 13.164 13.164 0 00-.107-11.446 18.113 18.113 0 00-4.19-5.7c-4.124-3.51-9.58-4.9-15.777-4.012-9.343 1.335-16.823 10.177-16.674 19.71.147 9.4 4.5 14.377 12.487 20.275 1.624 1.2 3.062 2.2 4.33 3.077 4.445 3.084 6.46 4.485 6.222 7.335a12.273 12.273 0 00-8.778-3.9h-.06a14.649 14.649 0 00-5.079.914 13.987 13.987 0 00-8.1 7.532 13.162 13.162 0 00.107 11.446 18.114 18.114 0 004.189 5.7c4.124 3.51 9.581 4.9 15.777 4.012 9.344-1.335 16.824-10.177 16.674-19.71-.146-9.399-4.501-14.377-12.485-20.275z" fill="none"/></clipPath></defs><g data-name="Сгруппировать 128"><g data-name="Сгруппировать 121"><g data-name="Сгруппировать 120"><g data-name="Сгруппировать 119" fill="#d68c62"><path data-name="Контур 70" d="M11.231 121.36a5.72 5.72 0 011.82 4.417 6.384 6.384 0 01-6.784 6.774c-1.775 0-4.71-.507-6.133-1.979a11.065 11.065 0 01.419-5.05h.318c-.364 3.733 2 6.122 5.223 5.943a4.835 4.835 0 004.855-4.855 4.419 4.419 0 00-1.422-3.376l-6.939-6.445a6.067 6.067 0 01-1.963-4.49 6.067 6.067 0 016.367-6.122 15.784 15.784 0 013.106.372h1.436v4.445h-.349c.009-2.318-1.819-3.731-4.076-3.731a4.248 4.248 0 00-4.456 4.166 4.555 4.555 0 001.459 3.34z"/><path data-name="Контур 71" d="M32.437 106.648a15.716 15.716 0 004.363-.659v4.554l-.364-.005v-.646a2.16 2.16 0 00-2.066-2.157h-6.867v21.7a2.321 2.321 0 002.32 2.249h.458l.006.362H22.36l.006-.362h.458a2.323 2.323 0 002.319-2.219v-21.729h-6.872a2.159 2.159 0 00-2.065 2.157v.646l-.365.005v-4.554a15.729 15.729 0 004.363.659z"/><path data-name="Контур 72" d="M49.443 106.683c4.391 0 7.081 2.588 7.081 6.809 0 3.507-2.67 6.908-6.154 6.908a8.781 8.781 0 012.593 2.549s3.123 4.46 4.525 5.991c1.457 1.592 2.8 2.723 4.928 2.74v.363h-1.988a7.793 7.793 0 01-6.321-3.176c-.412-.491-4.494-6.431-4.772-6.781-.948-1.19-2-2.445-3.328-2.445v-.334s.824.017 1.915-.013c1.879-.051 4.626-.5 5.654-3.762a7.511 7.511 0 00.231-2.169c-.089-3.276-1.8-5.375-4.494-5.522-1.848-.1-4.04-.012-4.51-.029v21.592a2.321 2.321 0 002.32 2.279h.458l.006.362h-7.914l.005-.362h.459a2.32 2.32 0 002.319-2.261v-20.1a2.322 2.322 0 00-2.321-2.278h-.458l-.006-.36z"/><path data-name="Контур 73" d="M84.785 129.4a3.584 3.584 0 003.182 2.282h.3v.362h-8.158v-.359h.318a1.54 1.54 0 001.377-2.274l-2.317-6.171h-9.758l-2.427 6.192a1.538 1.538 0 001.385 2.253h.319v.359h-7.293v-.362h.327a3.583 3.583 0 003.173-2.279l8.216-19.495a19.122 19.122 0 001.341-3.731h.327zm-5.7-7.246l-4.367-11.628-4.557 11.628z"/><path data-name="Контур 74" d="M101.16 106.689c7.739 0 13.011 5.074 13.011 12.689 0 7.6-5.272 12.667-13.011 12.667H88.895l.007-.362h.458a2.321 2.321 0 002.32-2.273v-20.293a2.235 2.235 0 00-2.307-2.073h-.459l-.005-.359zm-7.12 24.255h7.12c6.21 0 10.294-4.626 10.294-11.566 0-6.961-4.121-11.6-10.294-11.6h-7.12z"/><path data-name="Контур 75" d="M132.424 132.041h-15.018l.005-.362h.459a2.322 2.322 0 002.32-2.278v-20.285a2.32 2.32 0 00-2.308-2.075h-.458l-.006-.361h10.587a15.659 15.659 0 004.319-.658v4.574l-.366-.005v-.646a2.161 2.161 0 00-2.029-2.156h-7.385v11.2h6.122a1.785 1.785 0 001.753-1.785v-.533h.354v5.734h-.354v-.533a1.785 1.785 0 00-1.715-1.784h-6.16v10.854h5.2c3.838 0 5.312-1.985 6.431-4.744h.362z"/><path data-name="Контур 76" d="M147.713 106.683c4.39 0 7.081 2.588 7.081 6.809 0 3.507-2.671 6.908-6.155 6.908a8.779 8.779 0 012.593 2.549s3.123 4.46 4.526 5.991c1.457 1.592 2.8 2.723 4.927 2.74v.363h-1.988a7.791 7.791 0 01-6.32-3.176c-.412-.491-4.495-6.431-4.773-6.781-.947-1.19-2-2.445-3.327-2.445v-.334s.824.017 1.914-.013c1.879-.051 4.627-.5 5.654-3.762a7.44 7.44 0 00.231-2.169c-.089-3.276-1.8-5.375-4.494-5.522-1.847-.1-4.04-.012-4.51-.029v21.592a2.322 2.322 0 002.32 2.279h.459l.005.362h-7.914l.006-.362h.458a2.319 2.319 0 002.319-2.261v-20.1a2.322 2.322 0 00-2.32-2.278h-.459l-.006-.36z"/></g></g></g><g data-name="Сгруппировать 127"><g data-name="Сгруппировать 126"><g data-name="Сгруппировать 125" clip-path="url(#b)" transform="translate(1789.36 -3607.859)"><g data-name="Сгруппировать 124" fill-rule="evenodd"><path data-name="Контур 77" d="M-1697.1 3608.309l1.871 2.741 1-1.991c1.044.32 1.617.547 1.617.547l4.495 3.262c13.65 31.38.157 67.521.157 67.521l-3.829 3.339a44.548 44.548 0 01-20.17 2.1l-1.635-1.418.137 1.171a24.671 24.671 0 01-8.222-2.875l-3.522-4.825c-10.764-36 1.333-65.8 1.333-65.8l4.2-3.276a45.931 45.931 0 0122.568-.496z" fill="url(#c)"/><g data-name="Сгруппировать 122" opacity=".2" style="mix-blend-mode:multiply;isolation:isolate"><path data-name="Контур 78" d="M-1678.766 3675.643s-25.4-7.1-37.548-25.8 3.48-45.567 3.48-45.567l4.586-.48s-21 25.364-7.754 44.086 37.83 25.2 37.83 25.2z" fill="url(#a)"/><path data-name="Контур 79" d="M-1677.911 3671.88s-20.557-4.23-30.337-22.032 5.334-26.718 11.722-32.41-2.8-13.543-2.8-13.543l6.958 1.089s2.978 7.277-1.6 11.82-23.148 17.515-12.992 31.722 30.272 16.813 30.272 16.813z" fill="url(#d)"/><path data-name="Контур 80" d="M-1680.137 3680.813a102.877 102.877 0 00-21.29-13.586c-13.329-6.515-23.007-8.5-23.007-8.5l-4.638-4.392.135 3.982 3.675 6.721s32.048 8.039 43.568 20.692z" fill="url(#e)"/><path data-name="Контур 81" d="M-1675.207 3656.516s-18.629-5.741-23.508-19.4 17.255-25.535 17.255-25.535l.847 2.126s-22.613 10.345-17.12 23.461 22.526 18.1 22.526 18.1z" fill="url(#f)"/><path data-name="Контур 82" d="M-1685.37 3644.373s-8.157-3.292-8.975-9.67 5.333-9.053 5.333-9.053 7.358 12.756 3.642 18.723z" fill="url(#g)"/><path data-name="Контур 83" d="M-1705.794 3620.353s-10.17 7.574-8.417 15.874c0 0-2.806-10.641 8.417-15.874z" fill="url(#h)"/><path data-name="Контур 84" d="M-1708.248 3661.861l-16.7-7.87-4.251-3.294-.083-2.171 3.88 4.3 10.883 5.179-10.883-11.418-4.2-5.815-.051-1.132 4.254 5.559z" fill="url(#i)"/><path data-name="Контур 85" d="M-1689.665 3691.049s-14.695-17.543-37.77-19.169l.531 2.563s27.2 4.1 35.064 17.128z" fill="url(#j)"/></g><path data-name="Контур 86" d="M-1724.552 3683.471s-5.608-13.17-7.651-32.816 9.179-41.417 9.179-41.417-12.715 37.174-1.528 74.233z" fill="#ef7232"/><path data-name="Контур 87" d="M-1681.694 3685.726s12.961-42.272-.389-75.6c0 .002 16.852 28.244.389 75.6z" fill="#6b1028"/><path data-name="Контур 88" d="M-1729.286 3648.526l1.851-4.749-.156-14.17-2.069 10.03z" fill="#d85123"/><path data-name="Контур 89" d="M-1726.454 3622.938l.586-4.634 1.241-3.5 1.6 2.107z" fill="#d85123"/><path data-name="Контур 90" d="M-1724.627 3614.8l2.411-4.518 5.22-4.138 10.441-2.346a39.6 39.6 0 00-11.654 1.74l-4.815 3.7z" fill="#a62c27"/><path data-name="Контур 91" d="M-1711.1 3692.158s-6.479-2.206-9.128-4.318-5.889-10.194-5.889-10.194l1.567 5.825 4.034 5.444a20.679 20.679 0 009.416 3.243z" fill="#a62c27"/><g data-name="Сгруппировать 123"><path data-name="Контур 92" d="M-1704.736 3690.964l-.479-.849.239-.948.808.593z" fill="#751628"/><path data-name="Контур 93" d="M-1704.736 3690.964l.569-.734.172-.77-.98-.293.49.5z" fill="#ea5f3e"/></g><path data-name="Контур 94" d="M-1731.736 3636.61l4.145-7 .841-5.1-2.568 1.141s-2.003 7.659-2.418 10.959z" fill="#ffbd5b" style="mix-blend-mode:soft-light;isolation:isolate"/><path data-name="Контур 95" d="M-1728.781 3660.394l-2.6-3.284a88.552 88.552 0 002.831 13.892l1.475 2.2s-1.425-7.82-1.706-12.808z" fill="#ffbd5b" style="mix-blend-mode:soft-light;isolation:isolate"/></g></g></g><path data-name="Контур 97" d="M-1701.35 3644.082c-1.662-1.2-3.13-2.2-4.427-3.079-2.9-1.97-4.733-3.234-5.634-4.613a12.57 12.57 0 006.07 1.636h.056c.1 0 .511.008 1.137-.042.266.019.532.042.8.042h.057a15.375 15.375 0 005.244-.923 14.338 14.338 0 008.363-7.611 13.056 13.056 0 00-.11-11.572 18.3 18.3 0 00-4.318-5.752 19.446 19.446 0 00-13.465-4.277 25.686 25.686 0 00-4.76.231c-9.616 1.344-17.314 10.254-17.16 19.861.151 9.461 4.62 14.466 12.814 20.392 1.661 1.2 3.13 2.2 4.426 3.08 2.9 1.97 4.734 3.234 5.634 4.612a12.578 12.578 0 00-6.069-1.635h-.056a10.83 10.83 0 00-1.147.041c-.262-.018-.525-.041-.788-.041h-.056a15.427 15.427 0 00-5.243.923 14.337 14.337 0 00-8.364 7.611 13.056 13.056 0 00.11 11.572 18.336 18.336 0 004.318 5.753 19.219 19.219 0 0012.58 4.307c.335 0 .679-.023 1.02-.037.323.013.642.037.971.037a26.31 26.31 0 003.653-.262c9.617-1.345 17.315-10.254 17.161-19.861-.154-9.461-4.623-14.467-12.817-20.393zm-6.493 39.186a25.545 25.545 0 01-2.553.219 17.865 17.865 0 01-10.82-4.019c-.084-.069-8.335-7.067-4.141-16.053a13.092 13.092 0 017.707-7.035 15.277 15.277 0 013.77-.821 11.7 11.7 0 017.924 4.036 10.357 10.357 0 012.128 9.123 8.964 8.964 0 01-5.385 6.708 12.271 12.271 0 01-3.759.97 8.667 8.667 0 01-6.647-3.881l-.023-.034a7.463 7.463 0 01-.19-7.873 7.247 7.247 0 015.5-3.995 6.667 6.667 0 014.243 2.12 5.759 5.759 0 011.374 4.618 4.882 4.882 0 01-.919 2.33 3.905 3.905 0 00.338-1.738 3.2 3.2 0 00-1.238-2.388 3.553 3.553 0 00-2.72-.773 3.882 3.882 0 00-.5.127 3.323 3.323 0 00-1.488-.127 3.627 3.627 0 00-3.081 4.2 4.371 4.371 0 002.47 3.343 5.077 5.077 0 003.131.383 6.115 6.115 0 003.9-.648c.132-.071.259-.146.382-.223a5.792 5.792 0 002.811-4.348 6.806 6.806 0 00-1.634-5.458 7.986 7.986 0 00-5.945-2.562 7.12 7.12 0 00-1.053.065 9.586 9.586 0 00-.938-.065 8.5 8.5 0 00-7.608 4.658 8.5 8.5 0 00.257 8.957l.022.032a9.971 9.971 0 009.058 4.4c.024 0 .211 0 .5-.028a12.488 12.488 0 001.487.028 12.946 12.946 0 004.681-1.087 10.131 10.131 0 006.04-7.487 11.611 11.611 0 00-2.177-9.788c.524-3.665-2.052-5.415-6.71-8.58a184.18 184.18 0 01-4.4-3.059c-8.089-5.85-12.223-10.479-12.368-19.542-.145-9.082 7.129-17.506 16.215-18.776a25.521 25.521 0 012.553-.219 17.873 17.873 0 0110.82 4.018c.084.07 8.335 7.067 4.14 16.054a13.082 13.082 0 01-7.707 7.035 15.24 15.24 0 01-3.779.821 11.71 11.71 0 01-7.915-4.036 10.361 10.361 0 01-2.128-9.123 8.964 8.964 0 015.385-6.708 12.326 12.326 0 013.77-.972 8.666 8.666 0 016.636 3.883l.023.034a7.455 7.455 0 01.19 7.873 7.243 7.243 0 01-5.505 3.994 6.666 6.666 0 01-4.24-2.119 5.761 5.761 0 01-1.375-4.617 4.885 4.885 0 01.92-2.332 3.9 3.9 0 00-.338 1.739 3.2 3.2 0 001.238 2.388 3.552 3.552 0 002.719.773 3.875 3.875 0 00.5-.127 3.314 3.314 0 001.489.127 3.627 3.627 0 003.081-4.2 4.372 4.372 0 00-2.47-3.343 5.082 5.082 0 00-3.132-.383 6.116 6.116 0 00-3.9.648 7.079 7.079 0 00-.382.223 5.793 5.793 0 00-2.811 4.348 6.811 6.811 0 001.635 5.458 7.978 7.978 0 005.945 2.562 7.486 7.486 0 001.046-.066c.309.036.623.06.944.066a8.523 8.523 0 007.609-4.658 8.5 8.5 0 00-.257-8.957l-.022-.032a9.965 9.965 0 00-9.058-4.4c-.025 0-.211 0-.5.027a12.518 12.518 0 00-1.489-.027 12.942 12.942 0 00-4.681 1.087 10.127 10.127 0 00-6.04 7.487 11.608 11.608 0 002.176 9.787c-.524 3.666 2.053 5.416 6.708 8.579 1.284.872 2.74 1.861 4.4 3.061 8.088 5.85 12.222 10.478 12.368 19.542.153 9.082-7.121 17.508-16.207 18.776z" fill="url(#k)" transform="translate(1789.36 -3607.859)"/><path data-name="Контур 98" d="M-1701.08 3644.082c-1.618-1.2-3.05-2.189-4.333-3.079-4.086-2.835-6.057-4.2-6.167-6.563a12.418 12.418 0 008.542 3.586h.055a14.843 14.843 0 005.134-.923 14.135 14.135 0 008.189-7.611 13.308 13.308 0 00-.107-11.572 18.251 18.251 0 00-4.228-5.752c-4.158-3.54-9.658-4.941-15.9-4.046-9.417 1.344-16.954 10.254-16.8 19.861.148 9.461 4.523 14.466 12.547 20.392 1.626 1.2 3.065 2.2 4.334 3.08 4.085 2.835 6.056 4.2 6.166 6.562a12.415 12.415 0 00-8.541-3.585h-.056a14.822 14.822 0 00-5.134.923 14.135 14.135 0 00-8.189 7.611 13.3 13.3 0 00.107 11.572 18.307 18.307 0 004.228 5.753 18.574 18.574 0 0012.318 4.307 25.228 25.228 0 003.577-.262c9.416-1.345 16.954-10.254 16.8-19.861-.143-9.462-4.518-14.467-12.542-20.393zm-.476 24.636a8.93 8.93 0 01-5.273 6.708 11.633 11.633 0 01-4.194 1 8.674 8.674 0 01-7.944-3.915l-.022-.035a7.59 7.59 0 01-.187-7.873 7.077 7.077 0 016.446-4.065 6.7 6.7 0 015.046 2.19 5.842 5.842 0 011.346 4.617 4.763 4.763 0 01-1.591 3.1l-.149.121a3.545 3.545 0 01-.427.32c-.362.2-.637.272-.9.029-.234-.22-.16-.485.058-.9a4.02 4.02 0 00.486-2.081 3.223 3.223 0 00-1.213-2.388 3.419 3.419 0 00-2.661-.773 3.615 3.615 0 00-3.017 4.2 4.365 4.365 0 002.418 3.343 5.463 5.463 0 004.936-.265c.129-.071.253-.146.374-.223a5.8 5.8 0 002.752-4.348 6.909 6.909 0 00-1.6-5.458 7.745 7.745 0 00-5.821-2.562 8.285 8.285 0 00-7.45 4.658 8.647 8.647 0 00.252 8.957l.021.032a9.687 9.687 0 008.87 4.4 12.453 12.453 0 004.584-1.087 10.075 10.075 0 005.913-7.487 11.8 11.8 0 00-2.131-9.788c.513-3.665-2.009-5.415-6.567-8.578-1.256-.871-2.68-1.858-4.308-3.061-7.92-5.85-11.968-10.478-12.11-19.542-.143-9.082 6.98-17.506 15.877-18.776 5.928-.848 11.128.467 15.044 3.8.082.07 8.161 7.067 4.054 16.054a12.923 12.923 0 01-7.547 7.035 13.892 13.892 0 01-4.788.869h-.06a11.341 11.341 0 01-8.551-4.084 10.519 10.519 0 01-2.084-9.124 8.926 8.926 0 015.273-6.707 11.582 11.582 0 014.194-1 8.667 8.667 0 017.944 3.916l.023.034a7.592 7.592 0 01.186 7.873 7.086 7.086 0 01-6.446 4.065 6.706 6.706 0 01-5.046-2.19 5.839 5.839 0 01-1.345-4.618 4.758 4.758 0 011.59-3.1l.156-.127a3.48 3.48 0 01.42-.315c.362-.2.638-.27.9-.028.234.219.16.484-.058.9a4.028 4.028 0 00-.486 2.081 3.226 3.226 0 001.212 2.388 3.427 3.427 0 002.663.773 3.615 3.615 0 003.016-4.2 4.363 4.363 0 00-2.418-3.343 5.463 5.463 0 00-4.936.265 6.834 6.834 0 00-.374.223 5.8 5.8 0 00-2.752 4.348 6.909 6.909 0 001.6 5.458 7.74 7.74 0 005.821 2.562 8.282 8.282 0 007.45-4.658 8.644 8.644 0 00-.251-8.956l-.022-.033a9.681 9.681 0 00-8.87-4.4 12.453 12.453 0 00-4.584 1.087 10.075 10.075 0 00-5.913 7.487 11.8 11.8 0 002.131 9.787c-.513 3.666 2.01 5.416 6.568 8.579 1.257.872 2.683 1.861 4.307 3.061 7.921 5.85 11.968 10.479 12.11 19.542.142 9.082-6.98 17.505-15.877 18.776-5.928.847-11.128-.467-15.044-3.8-.082-.069-8.151-7.089-4.053-16.053a12.919 12.919 0 017.546-7.035 14.248 14.248 0 014.649-.87h.2a11.34 11.34 0 018.55 4.084 10.518 10.518 0 012.084 9.124z" fill="url(#l)" transform="translate(1789.36 -3607.859)"/></g></g></svg>