<svg xmlns="http://www.w3.org/2000/svg" xmlns:xlink="http://www.w3.org/1999/xlink" width="192.504" height="66.937"><defs><linearGradient id="c" x1="47.138" y1="-28.133" x2="47.138" y2="-28.736" gradientUnits="objectBoundingBox"><stop offset="0" stop-color="#771a37"/><stop offset="1" stop-color="#cc4023"/></linearGradient><linearGradient id="a" x1="51.64" y1="-31.161" x2="53.32" y2="-31.161" gradientUnits="objectBoundingBox"><stop offset="0" stop-color="#af68a5"/><stop offset="1" stop-color="#823365"/></linearGradient><linearGradient id="d" x1="63.367" y1="-32.849" x2="65.323" y2="-32.849" xlink:href="#a"/><linearGradient id="e" x1="45.093" y1="-73.073" x2="45.734" y2="-73.073" xlink:href="#a"/><linearGradient id="f" x1="91.122" y1="-49.725" x2="92.978" y2="-49.725" xlink:href="#a"/><linearGradient id="g" x1="219.175" y1="-120.193" x2="221.029" y2="-120.193" xlink:href="#a"/><linearGradient id="h" x1="256.794" y1="-142.73" x2="258.613" y2="-142.73" xlink:href="#a"/><linearGradient id="i" x1="104.198" y1="-103.217" x2="105.236" y2="-103.217" xlink:href="#a"/><linearGradient id="j" x1="58.224" y1="-117.602" x2="58.745" y2="-117.602" xlink:href="#a"/><linearGradient id="k" x1=".617" y1=".584" x2="-.01" y2=".133" gradientUnits="objectBoundingBox"><stop offset=".265" stop-color="#6b1028"/><stop offset=".446" stop-color="#711428"/><stop offset=".62" stop-color="#7d1e28"/><stop offset=".858" stop-color="#6b1028"/></linearGradient><linearGradient id="l" x1=".838" y1="-.209" x2=".393" y2=".723" gradientUnits="objectBoundingBox"><stop offset=".011" stop-color="#ffbd5b"/><stop offset=".099" stop-color="#fcb658"/><stop offset=".221" stop-color="#f5a450"/><stop offset=".362" stop-color="#e98743"/><stop offset=".517" stop-color="#d85e30"/><stop offset=".62" stop-color="#cc4023"/><stop offset=".969" stop-color="#ef7232"/></linearGradient><clipPath id="b"><path data-name="Контур 36" d="M-1764.471 100.812c-1.417-1.046-2.671-1.916-3.777-2.684-3.877-2.69-5.635-3.912-5.428-6.4a10.714 10.714 0 007.657 3.4h.053a12.808 12.808 0 004.429-.8 12.2 12.2 0 007.069-6.571 11.483 11.483 0 00-.093-9.984 15.815 15.815 0 00-3.655-4.973c-3.6-3.061-8.356-4.271-13.761-3.5a17.5 17.5 0 00-14.545 17.2c.129 8.2 3.927 12.54 10.892 17.685 1.417 1.046 2.671 1.916 3.777 2.684 3.877 2.69 5.635 3.912 5.427 6.4a10.708 10.708 0 00-7.656-3.4h-.053a12.788 12.788 0 00-4.43.8 12.2 12.2 0 00-7.068 6.57 11.482 11.482 0 00.093 9.985 15.817 15.817 0 003.654 4.973c3.6 3.061 8.357 4.271 13.762 3.5a17.5 17.5 0 0014.544-17.197c-.128-8.2-3.927-12.543-10.891-17.688z" fill="none"/></clipPath></defs><g data-name="Сгруппировать 34"><g data-name="Сгруппировать 27"><g data-name="Сгруппировать 26"><g data-name="Сгруппировать 25" fill="#6b1028"><path data-name="Контур 10" d="M62.14 39.955a4.989 4.989 0 011.587 3.852 5.569 5.569 0 01-5.917 5.909c-1.549 0-4.108-.442-5.35-1.726a9.669 9.669 0 01.365-4.406h.278c-.318 3.257 1.744 5.34 4.556 5.185a4.219 4.219 0 004.235-4.235 3.86 3.86 0 00-1.24-2.945l-6.053-5.622a5.293 5.293 0 01-1.713-3.916 5.292 5.292 0 015.554-5.341 13.781 13.781 0 012.71.325h1.252v3.877h-.3a3.271 3.271 0 00-3.556-3.254 3.7 3.7 0 00-3.886 3.634 3.976 3.976 0 001.272 2.914z"/><path data-name="Контур 11" d="M80.637 27.12a13.667 13.667 0 003.806-.575v3.975h-.318v-.564a1.884 1.884 0 00-1.8-1.882h-5.989v18.928a2.024 2.024 0 002.023 1.962h.4l.005.316h-6.918l.005-.316h.4a2.025 2.025 0 002.022-1.936V28.069h-5.994a1.884 1.884 0 00-1.8 1.882v.569h-.318v-3.974a13.665 13.665 0 003.805.575z"/><path data-name="Контур 12" d="M95.471 27.152c3.83 0 6.177 2.257 6.177 5.939 0 3.059-2.33 6.026-5.369 6.026a7.655 7.655 0 012.262 2.223s2.725 3.89 3.948 5.226c1.271 1.389 2.441 2.375 4.3 2.39v.317h-1.734a6.794 6.794 0 01-5.513-2.771c-.36-.428-3.921-5.609-4.164-5.915-.826-1.037-1.747-2.132-2.9-2.132v-.292s.719.015 1.67-.011c1.639-.044 4.036-.435 4.932-3.281a6.514 6.514 0 00.2-1.892c-.077-2.858-1.567-4.688-3.92-4.817-1.611-.089-3.523-.01-3.934-.025v18.834a2.025 2.025 0 002.024 1.988h.4v.315h-6.9l.005-.315h.4a2.023 2.023 0 002.022-1.973V29.454a2.025 2.025 0 00-2.024-1.987h-.4l-.005-.314z"/><path data-name="Контур 13" d="M126.299 46.968a3.126 3.126 0 002.776 1.99h.264v.315h-7.116v-.313h.278a1.344 1.344 0 001.2-1.983l-2.022-5.383h-8.512l-2.116 5.4a1.34 1.34 0 001.208 1.964h.278v.313h-6.361v-.315h.284a3.127 3.127 0 002.769-1.988l7.166-17a16.668 16.668 0 001.17-3.255h.285zm-4.975-6.322l-3.809-10.142-3.975 10.142z"/><path data-name="Контур 14" d="M140.583 27.157c6.75 0 11.349 4.427 11.349 11.069s-4.6 11.049-11.349 11.049h-10.7l.006-.316h.4a2.024 2.024 0 002.023-1.983v-17.7a1.949 1.949 0 00-2.012-1.808h-.4l-.005-.313zm-6.211 21.157h6.211c5.416 0 8.979-4.035 8.979-10.088 0-6.072-3.595-10.12-8.979-10.12h-6.211z"/><path data-name="Контур 15" d="M167.853 49.274h-13.1l.005-.316h.4a2.025 2.025 0 002.024-1.987V29.277a2.025 2.025 0 00-2.014-1.81h-.4l-.005-.315h9.235a13.647 13.647 0 003.767-.574v3.99h-.319V30a1.885 1.885 0 00-1.77-1.881h-6.442v9.77h5.34a1.558 1.558 0 001.529-1.557v-.465h.309v5h-.309v-.465a1.559 1.559 0 00-1.5-1.557h-5.373v9.469h4.532c3.348 0 4.634-1.732 5.61-4.139h.316z"/><path data-name="Контур 16" d="M181.189 27.152c3.83 0 6.177 2.257 6.177 5.939 0 3.059-2.33 6.026-5.369 6.026a7.656 7.656 0 012.262 2.223s2.724 3.89 3.948 5.226c1.271 1.389 2.44 2.375 4.3 2.39v.317h-1.733a6.8 6.8 0 01-5.514-2.771c-.359-.428-3.92-5.609-4.163-5.915-.826-1.037-1.747-2.132-2.9-2.132v-.292s.719.015 1.67-.011c1.639-.044 4.035-.435 4.932-3.281a6.514 6.514 0 00.2-1.892c-.077-2.858-1.567-4.688-3.92-4.817-1.611-.089-3.524-.01-3.934-.025v18.834a2.025 2.025 0 002.024 1.988h.4l.005.315h-6.9v-.315h.4a2.024 2.024 0 002.023-1.973V29.454a2.025 2.025 0 00-2.024-1.987h-.4l-.005-.314z"/></g></g></g><g data-name="Сгруппировать 33"><g data-name="Сгруппировать 32"><g data-name="Сгруппировать 31" clip-path="url(#b)" transform="translate(1789.36 -68.98)"><g data-name="Сгруппировать 30" fill-rule="evenodd"><path data-name="Контур 17" d="M-1760.969 69.372l1.632 2.391.873-1.736c.91.278 1.41.477 1.41.477l3.921 2.845c11.907 27.371.137 58.9.137 58.9l-3.34 2.913a38.861 38.861 0 01-17.594 1.828l-1.426-1.237.119 1.022a21.505 21.505 0 01-7.171-2.508l-3.073-4.209c-9.389-31.4 1.164-57.393 1.164-57.393l3.667-2.858a40.061 40.061 0 0119.681-.435z" fill="url(#c)"/><g data-name="Сгруппировать 28" opacity=".2" style="mix-blend-mode:multiply;isolation:isolate"><path data-name="Контур 18" d="M-1744.979 128.1s-22.15-6.194-32.751-22.5 3.035-39.747 3.035-39.747l4-.418s-18.316 22.124-6.764 38.455 33 21.978 33 21.978z" fill="url(#a)"/><path data-name="Контур 19" d="M-1744.233 124.823s-17.931-3.69-26.462-19.218 4.653-23.305 10.225-28.27-2.444-11.813-2.444-11.813l6.069.95s2.6 6.347-1.4 10.31-20.192 15.278-11.332 27.67 26.405 14.666 26.405 14.666z" fill="url(#d)"/><path data-name="Контур 20" d="M-1746.174 132.615a89.733 89.733 0 00-18.571-11.851 93.885 93.885 0 00-20.068-7.417l-4.046-3.832.118 3.474 3.206 5.862s27.954 7.013 38 18.05z" fill="url(#e)"/><path data-name="Контур 21" d="M-1741.873 111.422s-16.25-5.008-20.506-16.919 15.051-22.273 15.051-22.273l.739 1.854s-19.725 9.024-14.934 20.464 19.65 15.793 19.65 15.793z" fill="url(#f)"/><path data-name="Контур 22" d="M-1750.738 100.829s-7.115-2.871-7.829-8.434 4.652-7.9 4.652-7.9 6.415 11.13 3.177 16.334z" fill="url(#g)"/><path data-name="Контур 23" d="M-1768.554 79.877s-8.871 6.607-7.342 13.847c-.004 0-2.448-9.281 7.342-13.847z" fill="url(#h)"/><path data-name="Контур 24" d="M-1770.695 116.083l-14.57-6.865-3.708-2.873-.072-1.894 3.384 3.749 9.493 4.517-9.493-9.96-3.666-5.073-.045-.988 3.711 4.849z" fill="url(#i)"/><path data-name="Контур 25" d="M-1754.485 141.544s-12.818-15.3-32.946-16.721l.463 2.236s23.723 3.576 30.586 14.94z" fill="url(#j)"/></g><path data-name="Контур 26" d="M-1784.916 134.934s-4.892-11.488-6.674-28.624 8.006-36.128 8.006-36.128-11.09 32.426-1.332 64.752z" fill="#ef7232"/><path data-name="Контур 27" d="M-1747.533 136.9s11.306-36.873-.339-65.943c0 .001 14.7 24.636.339 65.943z" fill="#6b1028"/><path data-name="Контур 28" d="M-1789.045 104.452l1.614-4.142-.136-12.361-1.805 8.749z" fill="#d85123"/><path data-name="Контур 29" d="M-1786.575 82.133l.511-4.042 1.083-3.054 1.4 1.838z" fill="#d85123"/><path data-name="Контур 30" d="M-1784.982 75.036l2.1-3.94 4.554-3.61 9.107-2.046a34.519 34.519 0 00-10.165 1.518l-4.2 3.224z" fill="#a62c27"/><path data-name="Контур 31" d="M-1773.184 142.511s-5.652-1.924-7.962-3.767-5.137-8.891-5.137-8.891l1.367 5.081 3.519 4.748a18.032 18.032 0 008.213 2.829z" fill="#a62c27"/><g data-name="Сгруппировать 29"><path data-name="Контур 32" d="M-1767.631 141.469l-.417-.741.209-.827.7.517z" fill="#751628"/><path data-name="Контур 33" d="M-1767.631 141.469l.5-.64.15-.672-.855-.255.428.436z" fill="#ea5f3e"/></g><path data-name="Контур 34" d="M-1791.182 94.058l3.615-6.109.734-4.446-2.24 1s-1.747 6.677-2.109 9.555z" fill="#ffbd5b" style="mix-blend-mode:soft-light;isolation:isolate"/><path data-name="Контур 35" d="M-1788.6 114.805l-2.266-2.865a77.186 77.186 0 002.47 12.117l1.286 1.921s-1.246-6.823-1.49-11.173z" fill="#ffbd5b" style="mix-blend-mode:soft-light;isolation:isolate"/></g></g></g><path data-name="Контур 37" d="M-1764.678 100.576a152.154 152.154 0 00-3.861-2.686c-2.529-1.719-4.129-2.821-4.914-4.023a10.967 10.967 0 005.294 1.426h.049a9.87 9.87 0 00.992-.036c.232.016.464.036.7.036h.05a13.414 13.414 0 004.573-.805 12.5 12.5 0 007.3-6.639 11.386 11.386 0 00-.095-10.094 15.977 15.977 0 00-3.767-5.017 16.96 16.96 0 00-11.745-3.731 22.371 22.371 0 00-4.152.2 17.746 17.746 0 00-14.968 17.324c.132 8.253 4.03 12.619 11.177 17.788a152.154 152.154 0 003.861 2.686c2.529 1.718 4.129 2.821 4.914 4.023a10.967 10.967 0 00-5.294-1.426h-.049a9.55 9.55 0 00-1 .035c-.229-.015-.458-.035-.687-.035h-.05a13.418 13.418 0 00-4.573.805 12.5 12.5 0 00-7.3 6.639 11.39 11.39 0 00.095 10.093 15.984 15.984 0 003.767 5.018 16.76 16.76 0 0010.974 3.758c.292 0 .592-.02.889-.033.282.012.56.033.847.033a23.062 23.062 0 003.187-.228 17.749 17.749 0 0014.968-17.325c-.136-8.251-4.035-12.617-11.182-17.786zm-5.664 34.181c-.757.106-1.5.162-2.226.191a15.587 15.587 0 01-9.439-3.506c-.073-.061-7.27-6.164-3.611-14a11.415 11.415 0 016.723-6.136 13.375 13.375 0 013.288-.717 10.216 10.216 0 016.912 3.521 9.039 9.039 0 011.856 7.958 7.818 7.818 0 01-4.7 5.851 10.733 10.733 0 01-3.279.847 7.565 7.565 0 01-5.8-3.386l-.02-.03a6.505 6.505 0 01-.166-6.867A6.322 6.322 0 01-1776 115a5.82 5.82 0 013.7 1.849 5.022 5.022 0 011.2 4.028 4.262 4.262 0 01-.8 2.033 3.4 3.4 0 00.3-1.516 2.8 2.8 0 00-1.08-2.083 3.107 3.107 0 00-2.372-.675 3.607 3.607 0 00-.439.111 2.906 2.906 0 00-1.3-.111 3.163 3.163 0 00-2.688 3.66 3.814 3.814 0 002.155 2.917 4.426 4.426 0 002.731.334 5.329 5.329 0 003.4-.566c.115-.061.226-.127.333-.194a5.053 5.053 0 002.452-3.793 5.938 5.938 0 00-1.426-4.76 6.957 6.957 0 00-5.185-2.235 6.227 6.227 0 00-.919.057 8.42 8.42 0 00-.818-.057 7.414 7.414 0 00-6.636 4.063 7.409 7.409 0 00.224 7.813l.019.028a8.7 8.7 0 007.9 3.835c.022 0 .184 0 .44-.024a10.97 10.97 0 001.3.024 11.3 11.3 0 004.083-.948 8.836 8.836 0 005.268-6.531 10.124 10.124 0 00-1.9-8.537c.457-3.2-1.79-4.724-5.853-7.485-1.125-.764-2.4-1.629-3.835-2.668-7.056-5.1-10.661-9.14-10.788-17.046a16.777 16.777 0 0114.144-16.378c.757-.106 1.5-.162 2.227-.191a15.59 15.59 0 019.438 3.505c.073.061 7.27 6.165 3.611 14a11.412 11.412 0 01-6.723 6.136 13.246 13.246 0 01-3.3.716 10.215 10.215 0 01-6.9-3.52 9.041 9.041 0 01-1.856-7.958 7.823 7.823 0 014.7-5.852 10.74 10.74 0 013.288-.847 7.56 7.56 0 015.789 3.387l.02.029a6.5 6.5 0 01.166 6.868 6.318 6.318 0 01-4.8 3.484 5.815 5.815 0 01-3.7-1.849 5.025 5.025 0 01-1.2-4.027 4.268 4.268 0 01.8-2.034 3.4 3.4 0 00-.295 1.517 2.8 2.8 0 001.08 2.083 3.1 3.1 0 002.372.674 3.545 3.545 0 00.438-.11 2.9 2.9 0 001.3.11 3.163 3.163 0 002.687-3.66 3.813 3.813 0 00-2.155-2.916 4.426 4.426 0 00-2.731-.334 5.341 5.341 0 00-3.4.565 6.323 6.323 0 00-.333.195 5.05 5.05 0 00-2.452 3.792 5.938 5.938 0 001.426 4.761 6.959 6.959 0 005.185 2.235 6.614 6.614 0 00.913-.058c.269.032.544.052.824.058a7.436 7.436 0 006.636-4.063 7.409 7.409 0 00-.224-7.813l-.019-.028a8.7 8.7 0 00-7.9-3.836c-.021 0-.184 0-.438.025a11 11 0 00-1.3-.025 11.336 11.336 0 00-4.084.949 8.836 8.836 0 00-5.268 6.531 10.124 10.124 0 001.9 8.537c-.457 3.2 1.79 4.724 5.851 7.483 1.12.761 2.39 1.623 3.837 2.67 7.056 5.1 10.662 9.14 10.788 17.046a16.777 16.777 0 01-14.15 16.377z" fill="url(#k)" transform="translate(1789.36 -68.98)"/><path data-name="Контур 38" d="M-1764.442 100.576a147.17 147.17 0 00-3.78-2.686c-3.564-2.473-5.284-3.666-5.379-5.724a10.832 10.832 0 007.451 3.127h.048a12.939 12.939 0 004.478-.805 12.329 12.329 0 007.143-6.639 11.6 11.6 0 00-.093-10.094 15.948 15.948 0 00-3.688-5.017c-3.627-3.088-8.425-4.31-13.865-3.529a17.634 17.634 0 00-14.657 17.324c.129 8.253 3.946 12.619 10.944 17.788 1.419 1.048 2.674 1.918 3.781 2.686 3.564 2.473 5.283 3.666 5.379 5.724a10.833 10.833 0 00-7.451-3.127h-.049a12.888 12.888 0 00-4.478.805 12.329 12.329 0 00-7.143 6.639 11.606 11.606 0 00.093 10.093 15.947 15.947 0 003.689 5.018 16.192 16.192 0 0010.744 3.758 22.125 22.125 0 003.121-.228 17.638 17.638 0 0014.657-17.325c-.13-8.253-3.946-12.619-10.945-17.788zm-.415 21.489a7.789 7.789 0 01-4.6 5.851 10.126 10.126 0 01-3.658.877 7.567 7.567 0 01-6.929-3.415l-.02-.031a6.617 6.617 0 01-.162-6.867 6.171 6.171 0 015.622-3.546 5.844 5.844 0 014.4 1.91 5.091 5.091 0 011.174 4.028 4.149 4.149 0 01-1.387 2.7l-.13.106a3.249 3.249 0 01-.373.28c-.316.173-.556.236-.781.025-.2-.192-.14-.423.05-.783a3.5 3.5 0 00.424-1.815 2.808 2.808 0 00-1.058-2.083 2.99 2.99 0 00-2.321-.675 3.155 3.155 0 00-2.632 3.66 3.808 3.808 0 002.11 2.917 4.761 4.761 0 004.3-.232c.113-.061.221-.127.326-.194a5.057 5.057 0 002.4-3.793 6.024 6.024 0 00-1.4-4.76 6.751 6.751 0 00-5.078-2.235 7.227 7.227 0 00-6.5 4.063 7.541 7.541 0 00.22 7.813l.019.028a8.446 8.446 0 007.736 3.835 10.863 10.863 0 004-.948 8.789 8.789 0 005.159-6.531 10.3 10.3 0 00-1.859-8.537c.447-3.2-1.753-4.724-5.729-7.482-1.1-.761-2.337-1.622-3.757-2.671-6.908-5.1-10.439-9.139-10.563-17.046a16.669 16.669 0 0113.848-16.378c5.171-.74 9.708.408 13.123 3.314.072.061 7.119 6.165 3.536 14a11.27 11.27 0 01-6.583 6.136 12.122 12.122 0 01-4.176.758h-.053a9.9 9.9 0 01-7.459-3.562 9.177 9.177 0 01-1.817-7.959 7.791 7.791 0 014.6-5.851 10.124 10.124 0 013.659-.876 7.559 7.559 0 016.929 3.416l.02.029a6.621 6.621 0 01.162 6.868 6.18 6.18 0 01-5.622 3.546 5.846 5.846 0 01-4.4-1.911 5.092 5.092 0 01-1.173-4.027 4.147 4.147 0 011.387-2.705l.136-.11a2.894 2.894 0 01.366-.275c.316-.172.557-.236.782-.025.2.192.139.423-.051.783a3.515 3.515 0 00-.424 1.815 2.816 2.816 0 001.064 2.091 2.986 2.986 0 002.322.674 3.154 3.154 0 002.632-3.66 3.809 3.809 0 00-2.11-2.916 4.767 4.767 0 00-4.3.231 5.399 5.399 0 00-.326.195 5.05 5.05 0 00-2.4 3.792 6.022 6.022 0 001.4 4.761 6.749 6.749 0 005.077 2.235 7.223 7.223 0 006.5-4.063 7.54 7.54 0 00-.219-7.812l-.019-.029a8.448 8.448 0 00-7.737-3.836 10.9 10.9 0 00-4 .949 8.788 8.788 0 00-5.158 6.531 10.29 10.29 0 001.859 8.537c-.448 3.2 1.753 4.724 5.729 7.483 1.1.761 2.34 1.623 3.757 2.67 6.909 5.1 10.439 9.14 10.563 17.046a16.671 16.671 0 01-13.849 16.378c-5.171.739-9.707-.408-13.122-3.315-.072-.061-7.11-6.183-3.536-14a11.263 11.263 0 016.582-6.136 12.438 12.438 0 014.056-.759h.174a9.894 9.894 0 017.458 3.562 9.177 9.177 0 011.81 7.956z" fill="url(#l)" transform="translate(1789.36 -68.98)"/></g></g></svg>