<svg xmlns="http://www.w3.org/2000/svg" width="11.721" height="14.014"><g data-name="Сгруппировать 132" fill="#fff"><path data-name="Контур 99" d="M8.25 5.98a.548.548 0 00-.709.313l-.021.05v.006a1.792 1.792 0 01-.132.244 1.588 1.588 0 01-.1.143 1.724 1.724 0 01-.199.223c-.014.013-.031.024-.045.037a1.787 1.787 0 01-1.18.45 1.794 1.794 0 01-1.567-.928 1.759 1.759 0 01-.044-.08c-.023-.047-.046-.092-.065-.14a.547.547 0 00-.708-.313.548.548 0 00-.313.709 2.914 2.914 0 005.4 0 .547.547 0 00-.317-.714z"/><path data-name="Контур 100" d="M10.011 1.721A5.808 5.808 0 005.868.001h-.007a5.89 5.89 0 00-5.86 5.87c.083 2.227 2.226 5.057 3.9 7.23a2.584 2.584 0 003.994-.062 34.495 34.495 0 002.486-3.554 7.746 7.746 0 001.345-3.614 5.841 5.841 0 00-1.715-4.15zM7.03 12.361a1.485 1.485 0 01-2.323 0c-2.263-2.882-3.61-5.282-3.61-6.492a4.774 4.774 0 014.764-4.774h.007a4.771 4.771 0 014.758 4.774c0 1.226-1.311 3.591-3.596 6.492z"/></g></svg>