<svg xmlns="http://www.w3.org/2000/svg" width="10.33" height="12.165"><path data-name="Контур 50" d="M5.16 12.162a2.552 2.552 0 01-2.016-.979C1.054 8.531-.005 6.508-.005 5.17A5.175 5.175 0 015.16-.003a5.175 5.175 0 015.165 5.173c0 1.338-1.059 3.361-3.148 6.013a2.553 2.553 0 01-2.017.979zm0-10.234A3.242 3.242 0 001.926 5.17c0 .651.718 2.259 2.735 4.818a.632.632 0 001 0C7.677 7.429 8.396 5.821 8.396 5.17a3.242 3.242 0 00-3.235-3.242zM3.953 5.066A1.208 1.208 0 005.16 6.273a1.207 1.207 0 000-2.414 1.207 1.207 0 00-1.2 1.21z" fill="#040506"/></svg>