<svg xmlns="http://www.w3.org/2000/svg" width="13.374" height="13.38"><path data-name="Контур 52" d="M8.649 13.38a6.007 6.007 0 01-1.072-.1C2.687 12.405-2.77 5.251 1.596.932c.163-.166.335-.325.513-.474A1.95 1.95 0 013.446.001a1.936 1.936 0 011.3.569l.007.007.884.919a1.916 1.916 0 01-.63 3.113 4.236 4.236 0 00-.7.344c-.487.5-.8 1.3 1.024 3.127.827.8 2.1 2.012 3.123.972a4.1 4.1 0 00.323-.669 1.9 1.9 0 011.389-1.159 1.9 1.9 0 011.726.518l.908.879.006.006a1.941 1.941 0 01.568 1.292 1.946 1.946 0 01-.451 1.337 7.452 7.452 0 01-.44.483 5.306 5.306 0 01-3.832 1.64zM3.367 1.044a.913.913 0 00-.587.216c-.152.127-.3.264-.439.406-3.722 3.728 1.344 9.84 5.422 10.586a4.265 4.265 0 003.978-1.251c.131-.132.258-.271.377-.413a.9.9 0 00-.051-1.219l-.907-.878-.007-.006a.846.846 0 00-.78-.236.849.849 0 00-.628.525 4.02 4.02 0 01-.538 1c-1.539 1.559-3.4.319-4.618-.957-1.188-1.14-2.562-3.085-1.011-4.616a4.153 4.153 0 011.031-.561.848.848 0 00.517-.626.858.858 0 00-.236-.785l-.007-.006-.884-.919a.894.894 0 00-.632-.262z" fill="#660b1d"/></svg>