<svg xmlns="http://www.w3.org/2000/svg" width="13.374" height="13.38"><path data-name="Контур 102" d="M8.649 13.38a6.014 6.014 0 01-1.072-.1C2.687 12.405-2.77 5.251 1.596.932c.163-.166.335-.325.513-.474A1.955 1.955 0 013.446.001a1.936 1.936 0 011.3.569l.007.007.884.919a1.916 1.916 0 01-.63 3.113 4.211 4.211 0 00-.7.345c-.487.5-.8 1.3 1.024 3.126.827.8 2.1 2.013 3.123.972a4.117 4.117 0 00.323-.668 1.9 1.9 0 011.389-1.16 1.9 1.9 0 011.726.518l.908.879.006.006a1.943 1.943 0 01.568 1.292 1.946 1.946 0 01-.451 1.338 7.707 7.707 0 01-.44.482 5.305 5.305 0 01-3.832 1.64zM3.367 1.045a.912.912 0 00-.587.215c-.151.127-.3.264-.439.406-3.722 3.728 1.344 9.84 5.422 10.587a4.27 4.27 0 003.978-1.251 6.12 6.12 0 00.377-.414.9.9 0 00-.051-1.218l-.907-.879-.007-.006a.843.843 0 00-.78-.235.849.849 0 00-.628.524 4.041 4.041 0 01-.538 1c-1.539 1.558-3.4.318-4.617-.958C3.401 7.676 2.027 5.731 3.578 4.2a4.159 4.159 0 011.031-.561.847.847 0 00.517-.626.855.855 0 00-.236-.784l-.007-.007-.884-.918a.893.893 0 00-.632-.262z" fill="#fff"/></svg>