<svg xmlns="http://www.w3.org/2000/svg" width="19.443" height="25.266"><g data-name="Сгруппировать 50"><g data-name="Сгруппировать 48"><path data-name="Контур 46" d="M18.456 25.266a.987.987 0 01-.987-.987 7.015 7.015 0 00-7.007-7.007h-1.48a7.015 7.015 0 00-7.008 7.007.987.987 0 01-.987.987.987.987 0 01-.987-.987 8.992 8.992 0 018.982-8.981h1.48a8.991 8.991 0 018.981 8.981.987.987 0 01-.987.987z" fill="#660b1d"/></g><g data-name="Сгруппировать 49"><path data-name="Контур 47" d="M9.623 13.324a6.669 6.669 0 01-6.662-6.662A6.67 6.67 0 019.623 0a6.669 6.669 0 016.662 6.662 6.669 6.669 0 01-6.662 6.662zm0-11.35a4.693 4.693 0 00-4.688 4.688 4.693 4.693 0 004.688 4.688 4.693 4.693 0 004.688-4.688 4.693 4.693 0 00-4.688-4.691z" fill="#660b1d"/></g></g></svg>