<svg xmlns="http://www.w3.org/2000/svg" width="22" height="22"><g data-name="Сгруппировать 44"><g data-name="Сгруппировать 39"><g data-name="Сгруппировать 38"><path data-name="Контур 42" d="M6.075 5.007a.811.811 0 00-1.149 0 5.55 5.55 0 00-1.589 4.5.813.813 0 00.808.732h.081a.813.813 0 00.728-.89 3.938 3.938 0 011.121-3.192.813.813 0 000-1.15z" fill="#fff"/></g></g><g data-name="Сгруппировать 41"><g data-name="Сгруппировать 40"><path data-name="Контур 43" d="M9.294 0A9.3 9.3 0 000 9.293a9.3 9.3 0 009.294 9.294 9.3 9.3 0 009.293-9.294A9.3 9.3 0 009.294 0zm0 16.961a7.677 7.677 0 01-7.668-7.668 7.676 7.676 0 017.668-7.667 7.676 7.676 0 017.667 7.667 7.676 7.676 0 01-7.667 7.668z" fill="#fff"/></g></g><g data-name="Сгруппировать 43"><g data-name="Сгруппировать 42"><path data-name="Контур 44" d="M21.762 20.613l-5.906-5.907a.813.813 0 00-1.149 0 .812.812 0 000 1.15l5.906 5.906a.81.81 0 00.575.238.806.806 0 00.574-.238.811.811 0 000-1.149z" fill="#fff"/></g></g></g></svg>