<svg xmlns="http://www.w3.org/2000/svg" width="29.634" height="18.335" viewBox="0 0 29.634 18.335">
  <path id="Контур_40" data-name="Контур 40" d="M5309.391,5102.817a8.75,8.75,0,0,1-.731-.8l-.066-.1h-.1l.3-.4c.921-1.216,3.792-5.6,4.22-7.293l.017-.065a1.557,1.557,0,0,0-.177-1.423,1.687,1.687,0,0,0-1.43-.585h-3.09a2.017,2.017,0,0,0-1.986,1.319c-.64,1.628-2.525,5.191-4,6.481l-.4.353-.014-.534c-.044-1.767-.013-3.1.009-4.072l.007-.27c.031-1.212.061-2.357-.475-2.906a1.447,1.447,0,0,0-1.091-.371h-4.857a1.5,1.5,0,0,0-1.341.809,1.667,1.667,0,0,0,.382,1.778c.776.973.746,1.716.692,3.067a28.262,28.262,0,0,0,.016,3.242l.043.7-.475-.51a23.619,23.619,0,0,1-3.907-7.41c-.353-1-.837-1.671-2.045-1.671h-3.09c-1.113,0-1.751.576-1.751,1.578,0,2.532,5.593,16.756,15,16.756a3.442,3.442,0,0,0,2.525-.7,2.214,2.214,0,0,0,.341-1.768,2.332,2.332,0,0,1,.025-.881c-.005-.593-.009-1.137.01-1.48l.018-.311.3.085a6.867,6.867,0,0,1,2.38,1.777c.546.551.98,1.035,1.362,1.463,1.079,1.208,1.62,1.813,2.752,1.813h3.09a1.8,1.8,0,0,0,1.544-.646,1.747,1.747,0,0,0,.184-1.585C5313.082,5106.653,5310.589,5104.063,5309.391,5102.817Zm2.7,6.268a3.213,3.213,0,0,1-.515.018c-.3,0-.8,0-1.7,0h-1.11c-.514,0-.885-.417-1.626-1.248-.383-.431-.861-.967-1.514-1.626-1.614-1.57-2.646-2.211-3.559-2.211a1.456,1.456,0,0,0-1.082.344c-.456.462-.443,1.411-.429,2.51l0,.325c0,.95,0,1.318,0,1.452l.025.234-.039.015-.007.074h-.184a4.5,4.5,0,0,1-1.305.13c-8.2,0-13.392-12.71-13.6-15.292l-.02-.246.245-.024c.056,0,.322-.007,1.412,0h1.809c.456,0,.536.166.738.74,1.256,3.7,3.956,8.811,5.765,8.811,1.113,0,1.263-.953,1.263-1.885v-4.648a4.153,4.153,0,0,0-.957-2.614l-.321-.407,5.138.007.031.215c0,.022,0,.022,0,.654,0,1.432-.016,4.783.013,5.755a1.523,1.523,0,0,0,.728,1.514c.6.245,1.482-.162,2.428-1.12a26.632,26.632,0,0,0,3.906-6.564.648.648,0,0,1,.705-.46h3.41l-.067.319c-.323,1.489-3.443,6.071-4.044,6.913l-.035.051a1.622,1.622,0,0,0,.023,2.14l.018.021c.07.086.254.287.524.565,2.6,2.685,3.946,4.393,4.131,5.244l.056.259Z" transform="translate(-5284.06 -5092.149)" fill="#fff"/>
</svg>
