<svg xmlns="http://www.w3.org/2000/svg" xmlns:xlink="http://www.w3.org/1999/xlink" width="35.989" height="66.937" viewBox="0 0 35.989 66.937">
  <defs>
    <clipPath id="clip-path">
      <path id="Контур_36" data-name="Контур 36" d="M-1764.471,100.812c-1.417-1.046-2.671-1.916-3.777-2.684-3.877-2.69-5.635-3.912-5.428-6.4a10.714,10.714,0,0,0,7.657,3.4h.053a12.808,12.808,0,0,0,4.429-.8,12.2,12.2,0,0,0,7.069-6.571,11.483,11.483,0,0,0-.093-9.984,15.815,15.815,0,0,0-3.655-4.973c-3.6-3.061-8.356-4.271-13.761-3.5A17.5,17.5,0,0,0-1786.522,86.5c.129,8.2,3.927,12.54,10.892,17.685,1.417,1.046,2.671,1.916,3.777,2.684,3.877,2.69,5.635,3.912,5.427,6.4a10.708,10.708,0,0,0-7.656-3.4h-.053a12.788,12.788,0,0,0-4.43.8,12.2,12.2,0,0,0-7.068,6.57,11.482,11.482,0,0,0,.093,9.985,15.817,15.817,0,0,0,3.654,4.973c3.6,3.061,8.357,4.271,13.762,3.5A17.5,17.5,0,0,0-1753.58,118.5C-1753.708,110.3-1757.507,105.957-1764.471,100.812Z" fill="none"/>
    </clipPath>
    <linearGradient id="linear-gradient" x1="47.138" y1="-28.133" x2="47.138" y2="-28.736" gradientUnits="objectBoundingBox">
      <stop offset="0" stop-color="#771a37"/>
      <stop offset="1" stop-color="#cc4023"/>
    </linearGradient>
    <linearGradient id="linear-gradient-2" x1="51.64" y1="-31.161" x2="53.32" y2="-31.161" gradientUnits="objectBoundingBox">
      <stop offset="0" stop-color="#af68a5"/>
      <stop offset="1" stop-color="#823365"/>
    </linearGradient>
    <linearGradient id="linear-gradient-3" x1="63.367" y1="-32.849" x2="65.323" y2="-32.849" xlink:href="#linear-gradient-2"/>
    <linearGradient id="linear-gradient-4" x1="45.093" y1="-73.073" x2="45.734" y2="-73.073" xlink:href="#linear-gradient-2"/>
    <linearGradient id="linear-gradient-5" x1="91.122" y1="-49.725" x2="92.978" y2="-49.725" xlink:href="#linear-gradient-2"/>
    <linearGradient id="linear-gradient-6" x1="219.175" y1="-120.193" x2="221.029" y2="-120.193" xlink:href="#linear-gradient-2"/>
    <linearGradient id="linear-gradient-7" x1="256.794" y1="-142.73" x2="258.613" y2="-142.73" xlink:href="#linear-gradient-2"/>
    <linearGradient id="linear-gradient-8" x1="104.198" y1="-103.217" x2="105.236" y2="-103.217" xlink:href="#linear-gradient-2"/>
    <linearGradient id="linear-gradient-9" x1="58.224" y1="-117.602" x2="58.745" y2="-117.602" xlink:href="#linear-gradient-2"/>
    <linearGradient id="linear-gradient-10" x1="0.617" y1="0.584" x2="-0.01" y2="0.133" gradientUnits="objectBoundingBox">
      <stop offset="0.265" stop-color="#6b1028"/>
      <stop offset="0.446" stop-color="#711428"/>
      <stop offset="0.62" stop-color="#7d1e28"/>
      <stop offset="0.858" stop-color="#6b1028"/>
    </linearGradient>
    <linearGradient id="linear-gradient-11" x1="0.838" y1="-0.209" x2="0.393" y2="0.723" gradientUnits="objectBoundingBox">
      <stop offset="0.011" stop-color="#ffbd5b"/>
      <stop offset="0.099" stop-color="#fcb658"/>
      <stop offset="0.221" stop-color="#f5a450"/>
      <stop offset="0.362" stop-color="#e98743"/>
      <stop offset="0.517" stop-color="#d85e30"/>
      <stop offset="0.62" stop-color="#cc4023"/>
      <stop offset="0.969" stop-color="#ef7232"/>
    </linearGradient>
  </defs>
  <g id="Сгруппировать_33" data-name="Сгруппировать 33" transform="translate(1789.36 -68.98)">
    <g id="Сгруппировать_32" data-name="Сгруппировать 32">
      <g id="Сгруппировать_31" data-name="Сгруппировать 31" clip-path="url(#clip-path)">
        <g id="Сгруппировать_30" data-name="Сгруппировать 30">
          <path id="Контур_17" data-name="Контур 17" d="M-1760.969,69.372l1.632,2.391.873-1.736c.91.278,1.41.477,1.41.477l3.921,2.845c11.907,27.371.137,58.9.137,58.9l-3.34,2.913a38.861,38.861,0,0,1-17.594,1.828l-1.426-1.237.119,1.022a21.505,21.505,0,0,1-7.171-2.508l-3.073-4.209c-9.389-31.4,1.164-57.393,1.164-57.393l3.667-2.858A40.061,40.061,0,0,1-1760.969,69.372Z" fill-rule="evenodd" fill="url(#linear-gradient)"/>
          <g id="Сгруппировать_28" data-name="Сгруппировать 28" opacity="0.2" style="mix-blend-mode: multiply;isolation: isolate">
            <path id="Контур_18" data-name="Контур 18" d="M-1744.979,128.1s-22.15-6.194-32.751-22.5,3.035-39.747,3.035-39.747l4-.418s-18.316,22.124-6.764,38.455,33,21.978,33,21.978Z" fill-rule="evenodd" fill="url(#linear-gradient-2)"/>
            <path id="Контур_19" data-name="Контур 19" d="M-1744.233,124.823s-17.931-3.69-26.462-19.218,4.653-23.305,10.225-28.27-2.444-11.813-2.444-11.813l6.069.95s2.6,6.347-1.4,10.31-20.192,15.278-11.332,27.67,26.405,14.666,26.405,14.666Z" fill-rule="evenodd" fill="url(#linear-gradient-3)"/>
            <path id="Контур_20" data-name="Контур 20" d="M-1746.174,132.615a89.733,89.733,0,0,0-18.571-11.851,93.885,93.885,0,0,0-20.068-7.417l-4.046-3.832.118,3.474,3.206,5.862s27.954,7.013,38,18.05Z" fill-rule="evenodd" fill="url(#linear-gradient-4)"/>
            <path id="Контур_21" data-name="Контур 21" d="M-1741.873,111.422s-16.25-5.008-20.506-16.919,15.051-22.273,15.051-22.273l.739,1.854s-19.725,9.024-14.934,20.464,19.65,15.793,19.65,15.793Z" fill-rule="evenodd" fill="url(#linear-gradient-5)"/>
            <path id="Контур_22" data-name="Контур 22" d="M-1750.738,100.829s-7.115-2.871-7.829-8.434,4.652-7.9,4.652-7.9S-1747.5,95.625-1750.738,100.829Z" fill-rule="evenodd" fill="url(#linear-gradient-6)"/>
            <path id="Контур_23" data-name="Контур 23" d="M-1768.554,79.877s-8.871,6.607-7.342,13.847C-1775.9,93.724-1778.344,84.443-1768.554,79.877Z" fill-rule="evenodd" fill="url(#linear-gradient-7)"/>
            <path id="Контур_24" data-name="Контур 24" d="M-1770.695,116.083l-14.57-6.865-3.708-2.873-.072-1.894,3.384,3.749,9.493,4.517-9.493-9.96-3.666-5.073-.045-.988,3.711,4.849Z" fill-rule="evenodd" fill="url(#linear-gradient-8)"/>
            <path id="Контур_25" data-name="Контур 25" d="M-1754.485,141.544s-12.818-15.3-32.946-16.721l.463,2.236s23.723,3.576,30.586,14.94Z" fill-rule="evenodd" fill="url(#linear-gradient-9)"/>
          </g>
          <path id="Контур_26" data-name="Контур 26" d="M-1784.916,134.934s-4.892-11.488-6.674-28.624,8.006-36.128,8.006-36.128S-1794.674,102.608-1784.916,134.934Z" fill="#ef7232" fill-rule="evenodd"/>
          <path id="Контур_27" data-name="Контур 27" d="M-1747.533,136.9s11.306-36.873-.339-65.943C-1747.872,70.958-1733.172,95.593-1747.533,136.9Z" fill="#6b1028" fill-rule="evenodd"/>
          <path id="Контур_28" data-name="Контур 28" d="M-1789.045,104.452l1.614-4.142-.136-12.361-1.805,8.749Z" fill="#d85123" fill-rule="evenodd"/>
          <path id="Контур_29" data-name="Контур 29" d="M-1786.575,82.133l.511-4.042,1.083-3.054,1.4,1.838Z" fill="#d85123" fill-rule="evenodd"/>
          <path id="Контур_30" data-name="Контур 30" d="M-1784.982,75.036l2.1-3.94,4.554-3.61,9.107-2.046a34.519,34.519,0,0,0-10.165,1.518l-4.2,3.224Z" fill="#a62c27" fill-rule="evenodd"/>
          <path id="Контур_31" data-name="Контур 31" d="M-1773.184,142.511s-5.652-1.924-7.962-3.767-5.137-8.891-5.137-8.891l1.367,5.081,3.519,4.748A18.032,18.032,0,0,0-1773.184,142.511Z" fill="#a62c27" fill-rule="evenodd"/>
          <g id="Сгруппировать_29" data-name="Сгруппировать 29">
            <path id="Контур_32" data-name="Контур 32" d="M-1767.631,141.469l-.417-.741.209-.827.7.517Z" fill="#751628" fill-rule="evenodd"/>
            <path id="Контур_33" data-name="Контур 33" d="M-1767.631,141.469l.5-.64.15-.672-.855-.255.428.436Z" fill="#ea5f3e" fill-rule="evenodd"/>
          </g>
          <path id="Контур_34" data-name="Контур 34" d="M-1791.182,94.058l3.615-6.109.734-4.446-2.24,1S-1790.82,91.18-1791.182,94.058Z" fill="#ffbd5b" fill-rule="evenodd" style="mix-blend-mode: soft-light;isolation: isolate"/>
          <path id="Контур_35" data-name="Контур 35" d="M-1788.6,114.805l-2.266-2.865a77.186,77.186,0,0,0,2.47,12.117l1.286,1.921S-1788.356,119.155-1788.6,114.805Z" fill="#ffbd5b" fill-rule="evenodd" style="mix-blend-mode: soft-light;isolation: isolate"/>
        </g>
      </g>
    </g>
    <path id="Контур_37" data-name="Контур 37" d="M-1764.678,100.576c-1.449-1.048-2.73-1.918-3.861-2.686-2.529-1.719-4.129-2.821-4.914-4.023a10.967,10.967,0,0,0,5.294,1.426h.049a9.87,9.87,0,0,0,.992-.036c.232.016.464.036.7.036h.05a13.414,13.414,0,0,0,4.573-.805,12.5,12.5,0,0,0,7.3-6.639,11.386,11.386,0,0,0-.095-10.094,15.977,15.977,0,0,0-3.767-5.017,16.96,16.96,0,0,0-11.745-3.731,22.371,22.371,0,0,0-4.152.2,17.746,17.746,0,0,0-14.968,17.324c.132,8.253,4.03,12.619,11.177,17.788,1.449,1.048,2.73,1.918,3.861,2.686,2.529,1.718,4.129,2.821,4.914,4.023a10.967,10.967,0,0,0-5.294-1.426h-.049a9.55,9.55,0,0,0-1,.035c-.229-.015-.458-.035-.687-.035h-.05a13.418,13.418,0,0,0-4.573.805,12.5,12.5,0,0,0-7.3,6.639,11.39,11.39,0,0,0,.095,10.093,15.984,15.984,0,0,0,3.767,5.018,16.76,16.76,0,0,0,10.974,3.758c.292,0,.592-.02.889-.033.282.012.56.033.847.033a23.062,23.062,0,0,0,3.187-.228,17.749,17.749,0,0,0,14.968-17.325C-1753.632,110.111-1757.531,105.745-1764.678,100.576Zm-5.664,34.181c-.757.106-1.5.162-2.226.191a15.587,15.587,0,0,1-9.439-3.506c-.073-.061-7.27-6.164-3.611-14a11.415,11.415,0,0,1,6.723-6.136,13.375,13.375,0,0,1,3.288-.717,10.216,10.216,0,0,1,6.912,3.521,9.039,9.039,0,0,1,1.856,7.958,7.818,7.818,0,0,1-4.7,5.851,10.733,10.733,0,0,1-3.279.847,7.565,7.565,0,0,1-5.8-3.386l-.02-.03a6.505,6.505,0,0,1-.166-6.867A6.322,6.322,0,0,1-1776,115a5.82,5.82,0,0,1,3.7,1.849,5.022,5.022,0,0,1,1.2,4.028,4.262,4.262,0,0,1-.8,2.033,3.4,3.4,0,0,0,.3-1.516,2.8,2.8,0,0,0-1.08-2.083,3.107,3.107,0,0,0-2.372-.675,3.607,3.607,0,0,0-.439.111,2.906,2.906,0,0,0-1.3-.111,3.163,3.163,0,0,0-2.688,3.66,3.814,3.814,0,0,0,2.155,2.917,4.426,4.426,0,0,0,2.731.334,5.329,5.329,0,0,0,3.4-.566c.115-.061.226-.127.333-.194a5.053,5.053,0,0,0,2.452-3.793,5.938,5.938,0,0,0-1.426-4.76,6.957,6.957,0,0,0-5.185-2.235,6.227,6.227,0,0,0-.919.057c-.268-.031-.54-.052-.818-.057a7.414,7.414,0,0,0-6.636,4.063,7.409,7.409,0,0,0,.224,7.813l.019.028a8.7,8.7,0,0,0,7.9,3.835c.022,0,.184,0,.44-.024a10.97,10.97,0,0,0,1.3.024,11.3,11.3,0,0,0,4.083-.948,8.836,8.836,0,0,0,5.268-6.531,10.124,10.124,0,0,0-1.9-8.537c.457-3.2-1.79-4.724-5.853-7.485-1.125-.764-2.4-1.629-3.835-2.668-7.056-5.1-10.661-9.14-10.788-17.046a16.777,16.777,0,0,1,14.144-16.378c.757-.106,1.5-.162,2.227-.191a15.59,15.59,0,0,1,9.438,3.505c.073.061,7.27,6.165,3.611,14a11.412,11.412,0,0,1-6.723,6.136,13.246,13.246,0,0,1-3.3.716,10.215,10.215,0,0,1-6.9-3.52,9.041,9.041,0,0,1-1.856-7.958,7.823,7.823,0,0,1,4.7-5.852,10.74,10.74,0,0,1,3.288-.847,7.56,7.56,0,0,1,5.789,3.387l.02.029a6.5,6.5,0,0,1,.166,6.868,6.318,6.318,0,0,1-4.8,3.484,5.815,5.815,0,0,1-3.7-1.849,5.025,5.025,0,0,1-1.2-4.027,4.268,4.268,0,0,1,.8-2.034,3.4,3.4,0,0,0-.295,1.517,2.8,2.8,0,0,0,1.08,2.083,3.1,3.1,0,0,0,2.372.674,3.545,3.545,0,0,0,.438-.11,2.9,2.9,0,0,0,1.3.11,3.163,3.163,0,0,0,2.687-3.66,3.813,3.813,0,0,0-2.155-2.916,4.426,4.426,0,0,0-2.731-.334,5.341,5.341,0,0,0-3.4.565c-.115.062-.225.128-.333.195a5.05,5.05,0,0,0-2.452,3.792,5.938,5.938,0,0,0,1.426,4.761,6.959,6.959,0,0,0,5.185,2.235,6.614,6.614,0,0,0,.913-.058c.269.032.544.052.824.058a7.436,7.436,0,0,0,6.636-4.063,7.409,7.409,0,0,0-.224-7.813l-.019-.028a8.7,8.7,0,0,0-7.9-3.836c-.021,0-.184,0-.438.025a11,11,0,0,0-1.3-.025,11.336,11.336,0,0,0-4.084.949,8.836,8.836,0,0,0-5.268,6.531,10.124,10.124,0,0,0,1.9,8.537c-.457,3.2,1.79,4.724,5.851,7.483,1.12.761,2.39,1.623,3.837,2.67,7.056,5.1,10.662,9.14,10.788,17.046A16.777,16.777,0,0,1-1770.342,134.757Z" fill="url(#linear-gradient-10)"/>
    <path id="Контур_38" data-name="Контур 38" d="M-1764.442,100.576c-1.411-1.043-2.661-1.91-3.78-2.686-3.564-2.473-5.284-3.666-5.379-5.724a10.832,10.832,0,0,0,7.451,3.127h.048a12.939,12.939,0,0,0,4.478-.805,12.329,12.329,0,0,0,7.143-6.639,11.6,11.6,0,0,0-.093-10.094,15.948,15.948,0,0,0-3.688-5.017c-3.627-3.088-8.425-4.31-13.865-3.529a17.634,17.634,0,0,0-14.657,17.324c.129,8.253,3.946,12.619,10.944,17.788,1.419,1.048,2.674,1.918,3.781,2.686,3.564,2.473,5.283,3.666,5.379,5.724a10.833,10.833,0,0,0-7.451-3.127h-.049a12.888,12.888,0,0,0-4.478.805,12.329,12.329,0,0,0-7.143,6.639,11.606,11.606,0,0,0,.093,10.093,15.947,15.947,0,0,0,3.689,5.018,16.192,16.192,0,0,0,10.744,3.758,22.125,22.125,0,0,0,3.121-.228,17.638,17.638,0,0,0,14.657-17.325C-1753.627,110.111-1757.443,105.745-1764.442,100.576Zm-.415,21.489a7.789,7.789,0,0,1-4.6,5.851,10.126,10.126,0,0,1-3.658.877,7.567,7.567,0,0,1-6.929-3.415l-.02-.031a6.617,6.617,0,0,1-.162-6.867,6.171,6.171,0,0,1,5.622-3.546,5.844,5.844,0,0,1,4.4,1.91,5.091,5.091,0,0,1,1.174,4.028,4.149,4.149,0,0,1-1.387,2.7l-.13.106a3.249,3.249,0,0,1-.373.28c-.316.173-.556.236-.781.025-.2-.192-.14-.423.05-.783a3.5,3.5,0,0,0,.424-1.815,2.808,2.808,0,0,0-1.058-2.083,2.99,2.99,0,0,0-2.321-.675,3.155,3.155,0,0,0-2.632,3.66,3.808,3.808,0,0,0,2.11,2.917,4.761,4.761,0,0,0,4.3-.232c.113-.061.221-.127.326-.194a5.057,5.057,0,0,0,2.4-3.793,6.024,6.024,0,0,0-1.4-4.76,6.751,6.751,0,0,0-5.078-2.235,7.227,7.227,0,0,0-6.5,4.063,7.541,7.541,0,0,0,.22,7.813l.019.028a8.446,8.446,0,0,0,7.736,3.835,10.863,10.863,0,0,0,4-.948,8.789,8.789,0,0,0,5.159-6.531,10.3,10.3,0,0,0-1.859-8.537c.447-3.2-1.753-4.724-5.729-7.482-1.1-.761-2.337-1.622-3.757-2.671-6.908-5.1-10.439-9.139-10.563-17.046a16.669,16.669,0,0,1,13.848-16.378c5.171-.74,9.708.408,13.123,3.314.072.061,7.119,6.165,3.536,14a11.27,11.27,0,0,1-6.583,6.136,12.122,12.122,0,0,1-4.176.758h-.053a9.9,9.9,0,0,1-7.459-3.562,9.177,9.177,0,0,1-1.817-7.959,7.791,7.791,0,0,1,4.6-5.851,10.124,10.124,0,0,1,3.659-.876,7.559,7.559,0,0,1,6.929,3.416l.02.029a6.621,6.621,0,0,1,.162,6.868,6.18,6.18,0,0,1-5.622,3.546,5.846,5.846,0,0,1-4.4-1.911,5.092,5.092,0,0,1-1.173-4.027,4.147,4.147,0,0,1,1.387-2.705l.136-.11a2.894,2.894,0,0,1,.366-.275c.316-.172.557-.236.782-.025.2.192.139.423-.051.783a3.515,3.515,0,0,0-.424,1.815A2.816,2.816,0,0,0-1768,85.591a2.986,2.986,0,0,0,2.322.674,3.154,3.154,0,0,0,2.632-3.66,3.809,3.809,0,0,0-2.11-2.916,4.767,4.767,0,0,0-4.3.231c-.113.062-.222.128-.326.195a5.05,5.05,0,0,0-2.4,3.792,6.022,6.022,0,0,0,1.4,4.761,6.749,6.749,0,0,0,5.077,2.235,7.223,7.223,0,0,0,6.5-4.063,7.54,7.54,0,0,0-.219-7.812l-.019-.029a8.448,8.448,0,0,0-7.737-3.836,10.9,10.9,0,0,0-4,.949,8.788,8.788,0,0,0-5.158,6.531,10.29,10.29,0,0,0,1.859,8.537c-.448,3.2,1.753,4.724,5.729,7.483,1.1.761,2.34,1.623,3.757,2.67,6.909,5.1,10.439,9.14,10.563,17.046a16.671,16.671,0,0,1-13.849,16.378c-5.171.739-9.707-.408-13.122-3.315-.072-.061-7.11-6.183-3.536-14a11.263,11.263,0,0,1,6.582-6.136,12.438,12.438,0,0,1,4.056-.759h.174a9.894,9.894,0,0,1,7.458,3.562A9.177,9.177,0,0,1-1764.857,122.065Z" fill="url(#linear-gradient-11)"/>
  </g>
</svg>
